<svg xmlns="http://www.w3.org/2000/svg" xmlns:xlink="http://www.w3.org/1999/xlink" width="220" height="67" viewBox="0 0 220 67" version="1.1" xml:space="preserve" style="fill-rule:evenodd;clip-rule:evenodd;stroke-linejoin:round;stroke-miterlimit:1.41421;"><rect id="Artboard1" x="0" y="0" width="220" height="67" style="fill:none;"></rect><path d="M81.694,8.202l2.572,0l0,12.166l6.144,0l0,2.286l-8.716,0l0,-14.452Z" style="fill:#7e8083;fill-rule:nonzero;"></path><path d="M92.981,8.202l9.573,0l0,2.246l-7,0l0,3.673l6.633,0l0,2.165l-6.633,0l0,4.082l7.368,0l0,2.286l-9.941,0l0,-14.452Z" style="fill:#7e8083;fill-rule:nonzero;"></path><path d="M106.289,8.202l9.573,0l0,2.246l-7,0l0,3.673l6.633,0l0,2.165l-6.633,0l0,4.082l7.368,0l0,2.286l-9.941,0l0,-14.452Z" style="fill:#7e8083;fill-rule:nonzero;"></path><path d="M130.67,9.815c-0.472,0 -0.871,0.15 -1.197,0.449c-0.324,0.299 -0.487,0.688 -0.487,1.163c0,0.409 0.112,0.803 0.335,1.184c0.223,0.381 0.539,0.755 0.943,1.124c0.284,-0.124 0.552,-0.259 0.802,-0.41c0.25,-0.149 0.47,-0.318 0.659,-0.51c0.19,-0.189 0.339,-0.401 0.447,-0.633c0.109,-0.231 0.162,-0.483 0.162,-0.755c0,-0.435 -0.155,-0.813 -0.466,-1.132c-0.312,-0.32 -0.711,-0.48 -1.198,-0.48m-1.193,6.388c-0.273,0.095 -0.528,0.212 -0.765,0.347c-0.238,0.137 -0.451,0.3 -0.634,0.491c-0.183,0.19 -0.329,0.418 -0.439,0.684c-0.107,0.265 -0.163,0.569 -0.163,0.907c0,0.355 0.072,0.674 0.214,0.959c0.144,0.286 0.33,0.525 0.562,0.715c0.23,0.192 0.49,0.337 0.776,0.438c0.286,0.103 0.564,0.155 0.837,0.155c0.599,0 1.108,-0.13 1.531,-0.388c0.421,-0.259 0.808,-0.627 1.162,-1.102l-3.081,-3.206Zm6.123,3.001l3.368,3.45l-3.267,0l-1.591,-1.654c-0.477,0.56 -1.055,1.021 -1.735,1.388c-0.681,0.368 -1.545,0.551 -2.592,0.551c-0.64,0 -1.252,-0.088 -1.838,-0.265c-0.584,-0.178 -1.099,-0.442 -1.54,-0.796c-0.443,-0.354 -0.797,-0.792 -1.062,-1.317c-0.265,-0.523 -0.398,-1.133 -0.398,-1.826c0,-0.531 0.088,-1.01 0.266,-1.44c0.178,-0.429 0.414,-0.812 0.708,-1.152c0.294,-0.34 0.628,-0.633 1.004,-0.879c0.375,-0.245 0.768,-0.455 1.179,-0.631c-0.481,-0.491 -0.862,-0.997 -1.143,-1.522c-0.281,-0.524 -0.422,-1.098 -0.422,-1.724c0,-0.613 0.12,-1.144 0.357,-1.593c0.239,-0.448 0.551,-0.819 0.94,-1.111c0.387,-0.294 0.822,-0.508 1.306,-0.643c0.483,-0.137 0.975,-0.205 1.479,-0.205c0.517,0 1.017,0.072 1.5,0.214c0.484,0.144 0.91,0.361 1.278,0.654c0.366,0.292 0.663,0.66 0.886,1.101c0.224,0.443 0.337,0.957 0.337,1.541c0,0.464 -0.077,0.888 -0.235,1.276c-0.156,0.389 -0.368,0.742 -0.633,1.061c-0.266,0.321 -0.578,0.604 -0.937,0.848c-0.362,0.245 -0.746,0.463 -1.153,0.653l2.366,2.47l1.673,-2.634l2.797,0l-2.898,4.185Z" style="fill:#98002e;fill-rule:nonzero;"></path><path d="M96.838,36.986l-2.225,-5.879l-2.266,5.879l4.491,0Zm-3.266,-8.941l2.224,0l6.226,14.452l-2.939,0l-1.347,-3.307l-6.266,0l-1.306,3.307l-2.879,0l6.287,-14.452Z" style="fill:#7e8083;fill-rule:nonzero;"></path><path d="M111.677,31.066c-0.273,-0.354 -0.656,-0.65 -1.155,-0.888c-0.495,-0.238 -0.995,-0.358 -1.5,-0.358c-0.297,0 -0.598,0.039 -0.897,0.113c-0.299,0.075 -0.572,0.19 -0.817,0.347c-0.244,0.158 -0.445,0.361 -0.602,0.613c-0.156,0.251 -0.235,0.554 -0.235,0.908c0,0.327 0.068,0.606 0.206,0.837c0.136,0.232 0.323,0.428 0.561,0.592c0.237,0.163 0.526,0.306 0.866,0.428c0.341,0.122 0.715,0.245 1.123,0.368c0.463,0.149 0.943,0.319 1.439,0.509c0.497,0.191 0.952,0.443 1.367,0.756c0.416,0.313 0.756,0.708 1.022,1.183c0.264,0.478 0.397,1.07 0.397,1.776c0,0.776 -0.143,1.454 -0.427,2.032c-0.288,0.578 -0.668,1.058 -1.145,1.439c-0.476,0.381 -1.033,0.667 -1.672,0.857c-0.64,0.19 -1.314,0.286 -2.022,0.286c-0.938,0 -1.857,-0.174 -2.755,-0.52c-0.899,-0.348 -1.633,-0.861 -2.204,-1.542l1.836,-1.714c0.354,0.489 0.828,0.876 1.419,1.163c0.593,0.286 1.173,0.428 1.745,0.428c0.3,0 0.605,-0.036 0.919,-0.111c0.313,-0.076 0.595,-0.201 0.847,-0.378c0.251,-0.176 0.457,-0.398 0.612,-0.664c0.157,-0.265 0.235,-0.595 0.235,-0.989c0,-0.381 -0.088,-0.698 -0.266,-0.95c-0.176,-0.251 -0.415,-0.469 -0.714,-0.652c-0.299,-0.185 -0.653,-0.345 -1.062,-0.48c-0.407,-0.136 -0.836,-0.279 -1.285,-0.429c-0.436,-0.135 -0.87,-0.3 -1.308,-0.489c-0.435,-0.19 -0.825,-0.443 -1.172,-0.756c-0.347,-0.314 -0.63,-0.697 -0.847,-1.153c-0.218,-0.456 -0.327,-1.024 -0.327,-1.704c0,-0.735 0.154,-1.368 0.459,-1.899c0.306,-0.53 0.707,-0.969 1.206,-1.316c0.496,-0.347 1.06,-0.605 1.693,-0.776c0.632,-0.17 1.275,-0.255 1.929,-0.255c0.735,0 1.48,0.13 2.235,0.388c0.756,0.259 1.411,0.646 1.968,1.163l-1.672,1.837Z" style="fill:#7e8083;fill-rule:nonzero;"></path><path d="M124.25,31.066c-0.273,-0.354 -0.657,-0.65 -1.154,-0.888c-0.497,-0.238 -0.997,-0.358 -1.5,-0.358c-0.299,0 -0.6,0.039 -0.898,0.113c-0.3,0.075 -0.572,0.19 -0.816,0.347c-0.246,0.158 -0.446,0.361 -0.603,0.613c-0.157,0.251 -0.234,0.554 -0.234,0.908c0,0.327 0.068,0.606 0.204,0.837c0.136,0.232 0.324,0.428 0.561,0.592c0.238,0.163 0.528,0.306 0.868,0.428c0.339,0.122 0.713,0.245 1.122,0.368c0.463,0.149 0.943,0.319 1.439,0.509c0.498,0.191 0.952,0.443 1.368,0.756c0.416,0.313 0.755,0.708 1.02,1.183c0.265,0.478 0.398,1.07 0.398,1.776c0,0.776 -0.143,1.454 -0.428,2.032c-0.286,0.578 -0.667,1.058 -1.143,1.439c-0.477,0.381 -1.035,0.667 -1.674,0.857c-0.639,0.19 -1.313,0.286 -2.02,0.286c-0.94,0 -1.858,-0.174 -2.757,-0.52c-0.897,-0.348 -1.632,-0.861 -2.203,-1.542l1.836,-1.714c0.354,0.489 0.828,0.876 1.419,1.163c0.592,0.286 1.174,0.428 1.745,0.428c0.299,0 0.605,-0.036 0.918,-0.111c0.313,-0.076 0.596,-0.201 0.848,-0.378c0.251,-0.176 0.456,-0.398 0.612,-0.664c0.158,-0.265 0.235,-0.595 0.235,-0.989c0,-0.381 -0.088,-0.698 -0.265,-0.95c-0.177,-0.251 -0.416,-0.469 -0.715,-0.652c-0.3,-0.185 -0.653,-0.345 -1.062,-0.48c-0.408,-0.136 -0.836,-0.279 -1.286,-0.429c-0.435,-0.135 -0.87,-0.3 -1.306,-0.489c-0.435,-0.19 -0.827,-0.443 -1.174,-0.756c-0.346,-0.314 -0.628,-0.697 -0.846,-1.153c-0.217,-0.456 -0.327,-1.024 -0.327,-1.704c0,-0.735 0.153,-1.368 0.459,-1.899c0.307,-0.53 0.707,-0.969 1.205,-1.316c0.497,-0.347 1.06,-0.605 1.694,-0.776c0.632,-0.17 1.276,-0.255 1.928,-0.255c0.736,0 1.481,0.13 2.236,0.388c0.755,0.259 1.412,0.646 1.969,1.163l-1.673,1.837Z" style="fill:#7e8083;fill-rule:nonzero;"></path><path d="M131.557,35.23c0,0.776 0.119,1.486 0.357,2.133c0.239,0.646 0.579,1.208 1.021,1.683c0.442,0.477 0.965,0.848 1.57,1.114c0.607,0.264 1.277,0.397 2.012,0.397c0.735,0 1.408,-0.133 2.021,-0.397c0.612,-0.266 1.14,-0.637 1.581,-1.114c0.443,-0.475 0.783,-1.037 1.022,-1.683c0.237,-0.647 0.356,-1.357 0.356,-2.133c0,-0.747 -0.119,-1.442 -0.356,-2.082c-0.239,-0.639 -0.576,-1.198 -1.011,-1.673c-0.436,-0.477 -0.959,-0.851 -1.572,-1.124c-0.612,-0.271 -1.293,-0.408 -2.041,-0.408c-0.749,0 -1.426,0.137 -2.031,0.408c-0.605,0.273 -1.127,0.647 -1.562,1.124c-0.434,0.475 -0.771,1.034 -1.01,1.673c-0.238,0.64 -0.357,1.335 -0.357,2.082m-2.797,0c0,-1.156 0.195,-2.201 0.582,-3.133c0.388,-0.932 0.926,-1.724 1.613,-2.378c0.687,-0.654 1.504,-1.156 2.449,-1.51c0.945,-0.354 1.977,-0.531 3.093,-0.531c1.129,0 2.17,0.177 3.123,0.531c0.953,0.354 1.775,0.856 2.469,1.51c0.694,0.654 1.235,1.446 1.623,2.378c0.388,0.932 0.581,1.977 0.581,3.133c0,1.13 -0.193,2.161 -0.581,3.093c-0.388,0.932 -0.929,1.734 -1.623,2.408c-0.694,0.674 -1.516,1.197 -2.469,1.571c-0.953,0.375 -1.994,0.562 -3.123,0.562c-1.116,0 -2.148,-0.187 -3.093,-0.562c-0.945,-0.374 -1.762,-0.897 -2.449,-1.571c-0.687,-0.674 -1.225,-1.476 -1.613,-2.408c-0.387,-0.932 -0.582,-1.963 -0.582,-3.093" style="fill:#7e8083;fill-rule:nonzero;"></path><path d="M158.071,31.434c-0.381,-0.518 -0.878,-0.895 -1.489,-1.134c-0.613,-0.237 -1.212,-0.357 -1.797,-0.357c-0.749,0 -1.429,0.137 -2.042,0.409c-0.611,0.272 -1.139,0.647 -1.581,1.123c-0.442,0.476 -0.781,1.034 -1.021,1.674c-0.238,0.639 -0.356,1.333 -0.356,2.082c0,0.788 0.115,1.509 0.346,2.163c0.232,0.652 0.561,1.214 0.991,1.683c0.428,0.469 0.942,0.835 1.54,1.092c0.599,0.259 1.273,0.388 2.021,0.388c0.776,0 1.463,-0.153 2.061,-0.459c0.598,-0.306 1.083,-0.711 1.45,-1.214l2.062,1.449c-0.641,0.803 -1.422,1.426 -2.348,1.868c-0.925,0.442 -2.007,0.663 -3.246,0.663c-1.129,0 -2.167,-0.189 -3.112,-0.562c-0.946,-0.374 -1.759,-0.897 -2.44,-1.571c-0.68,-0.675 -1.21,-1.476 -1.591,-2.408c-0.381,-0.931 -0.571,-1.964 -0.571,-3.092c0,-1.158 0.199,-2.202 0.602,-3.133c0.401,-0.932 0.952,-1.726 1.653,-2.378c0.7,-0.654 1.528,-1.157 2.48,-1.511c0.953,-0.354 1.986,-0.531 3.102,-0.531c0.463,0 0.946,0.044 1.449,0.133c0.504,0.089 0.986,0.224 1.45,0.409c0.461,0.181 0.897,0.41 1.305,0.682c0.409,0.273 0.756,0.6 1.042,0.981l-1.96,1.551Z" style="fill:#7e8083;fill-rule:nonzero;"></path><rect x="162.704" y="28.044" width="2.572" height="14.451" style="fill:#7e8083;fill-rule:nonzero;"></rect><path d="M177.114,36.986l-2.224,-5.879l-2.267,5.879l4.491,0Zm-3.265,-8.941l2.225,0l6.226,14.452l-2.94,0l-1.347,-3.307l-6.266,0l-1.305,3.307l-2.881,0l6.288,-14.452Z" style="fill:#7e8083;fill-rule:nonzero;"></path><path d="M186.28,30.291l-4.43,0l0,-2.246l11.43,0l0,2.246l-4.428,0l0,12.206l-2.572,0l0,-12.206Z" style="fill:#7e8083;fill-rule:nonzero;"></path><path d="M195.812,28.045l9.573,0l0,2.246l-7.002,0l0,3.673l6.634,0l0,2.165l-6.634,0l0,4.081l7.369,0l0,2.286l-9.94,0l0,-14.451Z" style="fill:#7e8083;fill-rule:nonzero;"></path><path d="M216.488,31.066c-0.272,-0.354 -0.656,-0.65 -1.153,-0.888c-0.498,-0.238 -0.997,-0.358 -1.5,-0.358c-0.3,0 -0.6,0.039 -0.899,0.113c-0.299,0.075 -0.572,0.19 -0.815,0.347c-0.246,0.158 -0.447,0.361 -0.603,0.613c-0.157,0.251 -0.235,0.554 -0.235,0.908c0,0.327 0.069,0.606 0.204,0.837c0.136,0.232 0.323,0.428 0.561,0.592c0.239,0.163 0.527,0.306 0.869,0.428c0.339,0.122 0.713,0.245 1.121,0.368c0.463,0.149 0.943,0.319 1.441,0.509c0.495,0.191 0.95,0.443 1.367,0.756c0.415,0.313 0.754,0.708 1.02,1.183c0.265,0.478 0.398,1.07 0.398,1.776c0,0.776 -0.143,1.454 -0.429,2.032c-0.285,0.578 -0.666,1.058 -1.144,1.439c-0.475,0.381 -1.033,0.667 -1.673,0.857c-0.638,0.19 -1.313,0.286 -2.02,0.286c-0.94,0 -1.857,-0.174 -2.756,-0.52c-0.898,-0.348 -1.633,-0.861 -2.204,-1.542l1.837,-1.714c0.353,0.489 0.827,0.876 1.418,1.163c0.593,0.286 1.175,0.428 1.746,0.428c0.298,0 0.604,-0.036 0.918,-0.111c0.312,-0.076 0.596,-0.201 0.847,-0.378c0.251,-0.176 0.457,-0.398 0.612,-0.664c0.158,-0.265 0.236,-0.595 0.236,-0.989c0,-0.381 -0.089,-0.698 -0.266,-0.95c-0.177,-0.251 -0.416,-0.469 -0.715,-0.652c-0.299,-0.185 -0.652,-0.345 -1.061,-0.48c-0.408,-0.136 -0.837,-0.279 -1.286,-0.429c-0.435,-0.135 -0.871,-0.3 -1.306,-0.489c-0.436,-0.19 -0.827,-0.443 -1.174,-0.756c-0.347,-0.314 -0.629,-0.697 -0.848,-1.153c-0.216,-0.456 -0.326,-1.024 -0.326,-1.704c0,-0.735 0.153,-1.368 0.46,-1.899c0.306,-0.53 0.707,-0.969 1.204,-1.316c0.497,-0.347 1.061,-0.605 1.694,-0.776c0.632,-0.17 1.276,-0.255 1.929,-0.255c0.735,0 1.48,0.13 2.235,0.388c0.756,0.259 1.411,0.646 1.97,1.163l-1.674,1.837Z" style="fill:#7e8083;fill-rule:nonzero;"></path><clipPath id="_clip1"><path d="M3.271,0c-1.812,0.031 -3.271,1.511 -3.271,3.331l0,35.851c0,1.841 1.491,3.331 3.332,3.331l7.682,0c0,0 2.421,0 5.013,-3.002c0.734,-0.849 2.49,-3.679 4.662,-7.278l-1.894,0c-1.84,0 -3.331,-1.492 -3.331,-3.332l0,-25.57c0,-1.82 -1.459,-3.3 -3.27,-3.331l-8.923,0Z"></path></clipPath><g clip-path="url(#_clip1)"><path d="M10.127,48.398l-28.734,-19.579l23.736,-34.835l28.735,19.579l-23.737,34.835Z" style="fill:url(#_Linear2);fill-rule:nonzero;"></path></g><clipPath id="_clip3"><path d="M54.289,8.106c-1.012,0.008 -2.747,0.201 -3.866,1.576c-0.946,1.162 -1.513,1.984 -1.671,2.24c-0.767,1.225 -2.219,3.34 -2.607,4.043c0,0 -0.155,0.274 -0.42,0.737l10.853,22.483c0.317,0.41 1.066,3.328 3.964,3.328l10.912,0c1.704,0 2.651,-1.393 1.637,-3.31l-15.267,-29.049c-0.76,-1.484 -1.888,-1.983 -2.743,-2.038c-0.055,0.014 -0.298,-0.006 -0.661,-0.01l-0.131,0Z"></path></clipPath><g clip-path="url(#_clip3)"><path d="M68.239,49.732l-30.914,-21.064l15.565,-22.842l30.913,21.064l-15.564,22.842Z" style="fill:url(#_Linear4);fill-rule:nonzero;"></path></g><path d="M39.09,8.099l1.5,0c0,0 14.543,-0.05 14.511,0.013c-0.045,0.084 -3.031,-0.453 -4.679,1.57c-0.944,1.162 -1.513,1.985 -1.671,2.241c-0.766,1.224 -2.217,3.339 -2.607,4.044c0,0 -12.992,22.767 -13.374,23.666c-0.383,0.898 -1.785,2.881 -5.209,2.881l-10.57,0l-5.977,0c0,0 2.421,0 5.013,-3.003c2.263,-2.62 14.224,-24.02 18.22,-28.988c0,0 1.833,-2.424 4.843,-2.424" style="fill:#cd163f;fill-rule:nonzero;"></path><rect x="0.608" y="51.8" width="218.495" height="0.122" style="fill:#7e8083;fill-rule:nonzero;"></rect><path d="M7.325,65.148c-0.133,0.2 -0.293,0.389 -0.482,0.565c-0.188,0.178 -0.405,0.335 -0.652,0.47c-0.249,0.135 -0.522,0.242 -0.822,0.321c-0.298,0.078 -0.625,0.118 -0.979,0.118c-0.591,0 -1.137,-0.103 -1.641,-0.311c-0.501,-0.206 -0.934,-0.492 -1.296,-0.859c-0.361,-0.364 -0.644,-0.798 -0.846,-1.3c-0.204,-0.502 -0.306,-1.054 -0.306,-1.652c0,-0.598 0.104,-1.147 0.31,-1.651c0.207,-0.502 0.493,-0.936 0.86,-1.301c0.366,-0.366 0.797,-0.652 1.296,-0.858c0.498,-0.208 1.039,-0.311 1.623,-0.311c0.288,0 0.57,0.031 0.846,0.09c0.278,0.06 0.539,0.144 0.781,0.252c0.245,0.11 0.467,0.241 0.665,0.393c0.201,0.153 0.366,0.324 0.499,0.517l-0.664,0.487c-0.081,-0.125 -0.19,-0.251 -0.326,-0.376c-0.138,-0.126 -0.299,-0.236 -0.483,-0.333c-0.184,-0.095 -0.386,-0.174 -0.603,-0.232c-0.218,-0.059 -0.453,-0.088 -0.705,-0.088c-0.509,0 -0.964,0.091 -1.368,0.275c-0.402,0.184 -0.744,0.433 -1.024,0.746c-0.281,0.312 -0.495,0.675 -0.643,1.087c-0.148,0.413 -0.222,0.847 -0.222,1.303c0,0.457 0.076,0.891 0.227,1.303c0.151,0.413 0.368,0.775 0.65,1.088c0.278,0.314 0.622,0.561 1.024,0.746c0.402,0.184 0.854,0.275 1.356,0.275c0.451,0 0.879,-0.091 1.285,-0.276c0.407,-0.184 0.747,-0.48 1.02,-0.886l0.62,0.398Z" style="fill:#7e8083;fill-rule:nonzero;"></path><path d="M16.256,62.506c0,-0.458 -0.074,-0.891 -0.223,-1.306c-0.147,-0.412 -0.361,-0.776 -0.641,-1.089c-0.281,-0.312 -0.622,-0.562 -1.024,-0.747c-0.404,-0.183 -0.857,-0.275 -1.359,-0.275c-0.501,0 -0.955,0.092 -1.357,0.275c-0.403,0.185 -0.744,0.435 -1.024,0.747c-0.282,0.313 -0.496,0.677 -0.644,1.089c-0.147,0.415 -0.221,0.848 -0.221,1.306c0,0.458 0.074,0.893 0.221,1.306c0.148,0.412 0.362,0.774 0.644,1.083c0.28,0.31 0.621,0.557 1.024,0.741c0.402,0.185 0.856,0.276 1.357,0.276c0.502,0 0.955,-0.091 1.359,-0.276c0.402,-0.184 0.743,-0.431 1.024,-0.741c0.28,-0.309 0.494,-0.671 0.641,-1.083c0.149,-0.413 0.223,-0.848 0.223,-1.306m0.841,-0.005c0,0.598 -0.103,1.149 -0.309,1.65c-0.207,0.503 -0.494,0.937 -0.86,1.302c-0.365,0.366 -0.798,0.652 -1.295,0.858c-0.5,0.207 -1.04,0.311 -1.624,0.311c-0.583,0 -1.124,-0.104 -1.623,-0.311c-0.498,-0.206 -0.931,-0.492 -1.297,-0.858c-0.365,-0.365 -0.651,-0.799 -0.858,-1.302c-0.207,-0.501 -0.31,-1.052 -0.31,-1.65c0,-0.598 0.103,-1.148 0.31,-1.651c0.207,-0.503 0.493,-0.937 0.858,-1.301c0.366,-0.366 0.799,-0.652 1.297,-0.859c0.499,-0.208 1.04,-0.311 1.623,-0.311c0.584,0 1.124,0.103 1.624,0.311c0.497,0.207 0.93,0.493 1.295,0.859c0.366,0.364 0.653,0.798 0.86,1.301c0.206,0.503 0.309,1.053 0.309,1.651" style="fill:#7e8083;fill-rule:nonzero;"></path><path d="M23.412,65.071l0.012,0l2.625,-6.493l1.218,0l0,7.845l-0.796,0l0,-6.814l-0.023,0l-2.837,6.814l-0.42,0l-2.836,-6.814l-0.023,0l0,6.814l-0.798,0l0,-7.845l1.219,0l2.659,6.493Z" style="fill:#7e8083;fill-rule:nonzero;"></path><path d="M34.004,65.071l0.012,0l2.625,-6.493l1.219,0l0,7.845l-0.798,0l0,-6.814l-0.022,0l-2.837,6.814l-0.421,0l-2.835,-6.814l-0.024,0l0,6.814l-0.798,0l0,-7.845l1.219,0l2.66,6.493Z" style="fill:#7e8083;fill-rule:nonzero;"></path><path d="M41.516,65.713l4.198,0l0,0.71l-4.996,0l0,-7.845l4.863,0l0,0.709l-4.065,0l0,2.693l3.8,0l0,0.708l-3.8,0l0,3.025Z" style="fill:#7e8083;fill-rule:nonzero;"></path><path d="M48.85,62.068l1.385,0c0.641,0 1.137,-0.116 1.484,-0.348c0.347,-0.233 0.521,-0.582 0.521,-1.047c0,-0.259 -0.047,-0.477 -0.144,-0.654c-0.096,-0.178 -0.229,-0.322 -0.398,-0.433c-0.17,-0.11 -0.378,-0.191 -0.621,-0.243c-0.244,-0.051 -0.515,-0.078 -0.809,-0.078l-1.418,0l0,2.803Zm0,4.355l-0.798,0l0,-7.844l2.305,0c0.383,0 0.74,0.036 1.069,0.111c0.328,0.073 0.612,0.193 0.854,0.359c0.238,0.166 0.425,0.382 0.558,0.648c0.133,0.266 0.201,0.591 0.201,0.976c0,0.287 -0.053,0.55 -0.156,0.786c-0.104,0.236 -0.243,0.441 -0.421,0.615c-0.177,0.173 -0.389,0.311 -0.632,0.416c-0.244,0.103 -0.51,0.169 -0.797,0.199l2.293,3.734l-0.975,0l-2.172,-3.667l-1.329,0l0,3.667Z" style="fill:#7e8083;fill-rule:nonzero;"></path><path d="M62.067,65.148c-0.133,0.2 -0.292,0.389 -0.481,0.565c-0.189,0.178 -0.407,0.335 -0.654,0.47c-0.248,0.135 -0.521,0.242 -0.82,0.321c-0.299,0.078 -0.626,0.118 -0.981,0.118c-0.59,0 -1.138,-0.103 -1.639,-0.311c-0.501,-0.206 -0.934,-0.492 -1.297,-0.859c-0.361,-0.364 -0.644,-0.798 -0.846,-1.3c-0.205,-0.502 -0.307,-1.054 -0.307,-1.652c0,-0.598 0.105,-1.147 0.311,-1.651c0.208,-0.502 0.493,-0.936 0.86,-1.301c0.365,-0.366 0.797,-0.652 1.295,-0.858c0.499,-0.208 1.04,-0.311 1.623,-0.311c0.29,0 0.571,0.031 0.848,0.09c0.278,0.06 0.537,0.144 0.781,0.252c0.244,0.11 0.466,0.241 0.664,0.393c0.201,0.153 0.367,0.324 0.5,0.517l-0.665,0.487c-0.082,-0.125 -0.191,-0.251 -0.327,-0.376c-0.136,-0.126 -0.298,-0.236 -0.483,-0.333c-0.184,-0.095 -0.385,-0.174 -0.603,-0.232c-0.217,-0.059 -0.452,-0.088 -0.703,-0.088c-0.51,0 -0.965,0.091 -1.369,0.275c-0.402,0.184 -0.743,0.433 -1.024,0.746c-0.282,0.312 -0.496,0.675 -0.643,1.087c-0.147,0.413 -0.222,0.847 -0.222,1.303c0,0.457 0.077,0.891 0.227,1.303c0.152,0.413 0.368,0.775 0.649,1.088c0.28,0.314 0.622,0.561 1.024,0.746c0.404,0.184 0.855,0.275 1.358,0.275c0.449,0 0.878,-0.091 1.285,-0.276c0.407,-0.184 0.746,-0.48 1.019,-0.886l0.62,0.398Z" style="fill:#7e8083;fill-rule:nonzero;"></path><rect x="64.217" y="58.579" width="0.798" height="7.844" style="fill:#7e8083;fill-rule:nonzero;"></rect><path d="M68.97,63.631l3.456,0l-1.728,-4.166l-1.728,4.166Zm-1.152,2.793l-0.876,0l3.39,-7.845l0.776,0l3.368,7.845l-0.887,0l-0.865,-2.062l-4.053,0l-0.853,2.062Z" style="fill:#7e8083;fill-rule:nonzero;"></path><path d="M77.202,65.713l3.657,0l0,0.71l-4.455,0l0,-7.845l0.798,0l0,7.135Z" style="fill:#7e8083;fill-rule:nonzero;"></path><path d="M86.907,62.068l1.384,0c0.643,0 1.138,-0.116 1.485,-0.348c0.347,-0.233 0.522,-0.582 0.522,-1.047c0,-0.259 -0.048,-0.477 -0.145,-0.654c-0.095,-0.178 -0.228,-0.322 -0.398,-0.433c-0.171,-0.11 -0.378,-0.191 -0.621,-0.243c-0.245,-0.051 -0.514,-0.078 -0.809,-0.078l-1.418,0l0,2.803Zm0,4.355l-0.797,0l0,-7.844l2.304,0c0.384,0 0.739,0.036 1.069,0.111c0.328,0.073 0.613,0.193 0.854,0.359c0.239,0.166 0.426,0.382 0.559,0.648c0.133,0.266 0.199,0.591 0.199,0.976c0,0.287 -0.052,0.55 -0.155,0.786c-0.104,0.236 -0.244,0.441 -0.42,0.615c-0.178,0.173 -0.389,0.311 -0.632,0.416c-0.245,0.103 -0.511,0.169 -0.798,0.199l2.294,3.734l-0.977,0l-2.171,-3.667l-1.329,0l0,3.667Z" style="fill:#7e8083;fill-rule:nonzero;"></path><path d="M94.319,65.713l4.198,0l0,0.71l-4.996,0l0,-7.845l4.863,0l0,0.709l-4.065,0l0,2.693l3.8,0l0,0.708l-3.8,0l0,3.025Z" style="fill:#7e8083;fill-rule:nonzero;"></path><path d="M101.952,63.631l3.457,0l-1.729,-4.166l-1.728,4.166Zm-1.151,2.793l-0.875,0l3.39,-7.845l0.775,0l3.368,7.845l-0.886,0l-0.865,-2.062l-4.054,0l-0.853,2.062Z" style="fill:#7e8083;fill-rule:nonzero;"></path><path d="M110.184,65.713l3.658,0l0,0.71l-4.456,0l0,-7.845l0.798,0l0,7.135Z" style="fill:#7e8083;fill-rule:nonzero;"></path><path d="M119.89,65.713l4.198,0l0,0.71l-4.996,0l0,-7.845l4.863,0l0,0.709l-4.065,0l0,2.693l3.8,0l0,0.708l-3.8,0l0,3.025Z" style="fill:#7e8083;fill-rule:nonzero;"></path><path d="M130.226,59.842c-0.17,-0.236 -0.387,-0.427 -0.653,-0.572c-0.266,-0.143 -0.587,-0.216 -0.965,-0.216c-0.191,0 -0.387,0.031 -0.586,0.089c-0.2,0.059 -0.381,0.149 -0.544,0.272c-0.161,0.121 -0.292,0.276 -0.392,0.459c-0.1,0.185 -0.15,0.404 -0.15,0.655c0,0.251 0.048,0.457 0.143,0.62c0.096,0.162 0.224,0.301 0.381,0.416c0.159,0.114 0.34,0.208 0.542,0.282c0.203,0.073 0.415,0.148 0.636,0.222c0.272,0.088 0.547,0.185 0.823,0.288c0.276,0.102 0.524,0.238 0.745,0.404c0.22,0.166 0.401,0.377 0.542,0.632c0.139,0.254 0.209,0.577 0.209,0.969c0,0.391 -0.074,0.73 -0.223,1.014c-0.15,0.284 -0.344,0.518 -0.582,0.703c-0.238,0.185 -0.511,0.321 -0.818,0.411c-0.306,0.088 -0.614,0.133 -0.925,0.133c-0.237,0 -0.472,-0.025 -0.708,-0.072c-0.237,-0.05 -0.463,-0.122 -0.677,-0.217c-0.214,-0.097 -0.412,-0.218 -0.597,-0.365c-0.185,-0.149 -0.348,-0.318 -0.488,-0.51l0.686,-0.51c0.17,0.281 0.409,0.515 0.715,0.704c0.307,0.188 0.667,0.282 1.081,0.282c0.199,0 0.402,-0.031 0.609,-0.094c0.206,-0.063 0.393,-0.159 0.559,-0.289c0.167,-0.128 0.303,-0.287 0.41,-0.476c0.107,-0.187 0.161,-0.408 0.161,-0.659c0,-0.273 -0.054,-0.5 -0.161,-0.681c-0.107,-0.181 -0.248,-0.332 -0.426,-0.455c-0.178,-0.121 -0.381,-0.223 -0.609,-0.304c-0.229,-0.081 -0.469,-0.163 -0.721,-0.244c-0.258,-0.08 -0.513,-0.173 -0.765,-0.276c-0.25,-0.104 -0.475,-0.239 -0.675,-0.404c-0.199,-0.167 -0.361,-0.372 -0.482,-0.616c-0.122,-0.243 -0.183,-0.543 -0.183,-0.898c0,-0.376 0.077,-0.701 0.228,-0.974c0.151,-0.273 0.347,-0.499 0.592,-0.677c0.244,-0.176 0.513,-0.306 0.808,-0.387c0.296,-0.081 0.588,-0.122 0.876,-0.122c0.532,0 0.986,0.094 1.363,0.283c0.376,0.188 0.661,0.411 0.854,0.67l-0.633,0.51Z" style="fill:#7e8083;fill-rule:nonzero;"></path><path d="M135.766,66.423l-0.798,0l0,-7.136l-2.626,0l0,-0.709l6.05,0l0,0.709l-2.626,0l0,7.136Z" style="fill:#7e8083;fill-rule:nonzero;"></path><path d="M140.774,63.631l3.456,0l-1.728,-4.166l-1.728,4.166Zm-1.152,2.793l-0.875,0l3.39,-7.845l0.775,0l3.368,7.845l-0.886,0l-0.864,-2.062l-4.055,0l-0.853,2.062Z" style="fill:#7e8083;fill-rule:nonzero;"></path><path d="M150.058,66.423l-0.797,0l0,-7.136l-2.626,0l0,-0.709l6.049,0l0,0.709l-2.626,0l0,7.136Z" style="fill:#7e8083;fill-rule:nonzero;"></path><path d="M155.432,65.713l4.199,0l0,0.71l-4.996,0l0,-7.845l4.863,0l0,0.709l-4.066,0l0,2.693l3.8,0l0,0.708l-3.8,0l0,3.025Z" style="fill:#7e8083;fill-rule:nonzero;"></path><path d="M169.314,59.842c-0.171,-0.236 -0.388,-0.427 -0.654,-0.572c-0.266,-0.143 -0.587,-0.216 -0.965,-0.216c-0.191,0 -0.386,0.031 -0.586,0.089c-0.199,0.059 -0.38,0.149 -0.543,0.272c-0.162,0.121 -0.293,0.276 -0.393,0.459c-0.1,0.185 -0.15,0.404 -0.15,0.655c0,0.251 0.048,0.457 0.144,0.62c0.095,0.162 0.223,0.301 0.381,0.416c0.158,0.114 0.339,0.208 0.541,0.282c0.204,0.073 0.415,0.148 0.637,0.222c0.271,0.088 0.546,0.185 0.822,0.288c0.277,0.102 0.525,0.238 0.746,0.404c0.22,0.166 0.401,0.377 0.541,0.632c0.14,0.254 0.21,0.577 0.21,0.969c0,0.391 -0.075,0.73 -0.223,1.014c-0.151,0.284 -0.345,0.518 -0.582,0.703c-0.239,0.185 -0.512,0.321 -0.819,0.411c-0.305,0.088 -0.614,0.133 -0.925,0.133c-0.236,0 -0.471,-0.025 -0.708,-0.072c-0.237,-0.05 -0.463,-0.122 -0.677,-0.217c-0.214,-0.097 -0.412,-0.218 -0.597,-0.365c-0.185,-0.149 -0.348,-0.318 -0.488,-0.51l0.686,-0.51c0.171,0.281 0.409,0.515 0.715,0.704c0.307,0.188 0.668,0.282 1.081,0.282c0.199,0 0.403,-0.031 0.609,-0.094c0.207,-0.063 0.394,-0.159 0.559,-0.289c0.167,-0.128 0.304,-0.287 0.41,-0.476c0.109,-0.187 0.162,-0.408 0.162,-0.659c0,-0.273 -0.053,-0.5 -0.162,-0.681c-0.106,-0.181 -0.248,-0.332 -0.426,-0.455c-0.177,-0.121 -0.381,-0.223 -0.609,-0.304c-0.229,-0.081 -0.469,-0.163 -0.72,-0.244c-0.259,-0.08 -0.514,-0.173 -0.765,-0.276c-0.25,-0.104 -0.476,-0.239 -0.676,-0.404c-0.199,-0.167 -0.361,-0.372 -0.482,-0.616c-0.121,-0.243 -0.183,-0.543 -0.183,-0.898c0,-0.376 0.077,-0.701 0.228,-0.974c0.151,-0.273 0.349,-0.499 0.593,-0.677c0.243,-0.176 0.512,-0.306 0.808,-0.387c0.296,-0.081 0.588,-0.122 0.876,-0.122c0.531,0 0.986,0.094 1.363,0.283c0.376,0.188 0.66,0.411 0.853,0.67l-0.632,0.51Z" style="fill:#7e8083;fill-rule:nonzero;"></path><path d="M173.336,65.713l4.199,0l0,0.71l-4.997,0l0,-7.845l4.864,0l0,0.709l-4.066,0l0,2.693l3.799,0l0,0.708l-3.799,0l0,3.025Z" style="fill:#7e8083;fill-rule:nonzero;"></path><path d="M180.671,62.068l1.383,0c0.643,0 1.138,-0.116 1.485,-0.348c0.347,-0.233 0.522,-0.582 0.522,-1.047c0,-0.259 -0.048,-0.477 -0.145,-0.654c-0.095,-0.178 -0.228,-0.322 -0.398,-0.433c-0.169,-0.11 -0.378,-0.191 -0.62,-0.243c-0.246,-0.051 -0.515,-0.078 -0.81,-0.078l-1.417,0l0,2.803Zm0,4.355l-0.798,0l0,-7.844l2.304,0c0.384,0 0.739,0.036 1.069,0.111c0.328,0.073 0.613,0.193 0.854,0.359c0.239,0.166 0.426,0.382 0.559,0.648c0.133,0.266 0.199,0.591 0.199,0.976c0,0.287 -0.052,0.55 -0.155,0.786c-0.104,0.236 -0.244,0.441 -0.42,0.615c-0.178,0.173 -0.389,0.311 -0.632,0.416c-0.245,0.103 -0.511,0.169 -0.798,0.199l2.293,3.734l-0.976,0l-2.17,-3.667l-1.329,0l0,3.667Z" style="fill:#7e8083;fill-rule:nonzero;"></path><path d="M189.556,65.392l0.022,0l2.548,-6.813l0.853,0l-3.002,7.844l-0.843,0l-2.991,-7.844l0.864,0l2.549,6.813Z" style="fill:#7e8083;fill-rule:nonzero;"></path><rect x="194.829" y="58.579" width="0.798" height="7.844" style="fill:#7e8083;fill-rule:nonzero;"></rect><path d="M205.088,65.148c-0.133,0.2 -0.293,0.389 -0.482,0.565c-0.188,0.178 -0.405,0.335 -0.652,0.47c-0.249,0.135 -0.522,0.242 -0.822,0.321c-0.298,0.078 -0.625,0.118 -0.979,0.118c-0.591,0 -1.138,-0.103 -1.641,-0.311c-0.501,-0.206 -0.934,-0.492 -1.296,-0.859c-0.361,-0.364 -0.643,-0.798 -0.847,-1.3c-0.203,-0.502 -0.305,-1.054 -0.305,-1.652c0,-0.598 0.104,-1.147 0.31,-1.651c0.207,-0.502 0.493,-0.936 0.859,-1.301c0.367,-0.366 0.797,-0.652 1.297,-0.858c0.498,-0.208 1.039,-0.311 1.623,-0.311c0.288,0 0.57,0.031 0.846,0.09c0.278,0.06 0.539,0.144 0.781,0.252c0.245,0.11 0.467,0.241 0.665,0.393c0.201,0.153 0.366,0.324 0.499,0.517l-0.665,0.487c-0.08,-0.125 -0.189,-0.251 -0.325,-0.376c-0.138,-0.126 -0.299,-0.236 -0.483,-0.333c-0.184,-0.095 -0.386,-0.174 -0.603,-0.232c-0.218,-0.059 -0.453,-0.088 -0.705,-0.088c-0.509,0 -0.964,0.091 -1.368,0.275c-0.402,0.184 -0.744,0.433 -1.024,0.746c-0.281,0.312 -0.495,0.675 -0.643,1.087c-0.148,0.413 -0.223,0.847 -0.223,1.303c0,0.457 0.077,0.891 0.228,1.303c0.151,0.413 0.368,0.775 0.65,1.088c0.278,0.314 0.622,0.561 1.024,0.746c0.402,0.184 0.854,0.275 1.356,0.275c0.451,0 0.879,-0.091 1.285,-0.276c0.407,-0.184 0.747,-0.48 1.02,-0.886l0.62,0.398Z" style="fill:#7e8083;fill-rule:nonzero;"></path><path d="M208.035,65.713l4.199,0l0,0.71l-4.996,0l0,-7.845l4.863,0l0,0.709l-4.066,0l0,2.693l3.8,0l0,0.708l-3.8,0l0,3.025Z" style="fill:#7e8083;fill-rule:nonzero;"></path><path d="M218.372,59.842c-0.169,-0.236 -0.388,-0.427 -0.654,-0.572c-0.266,-0.143 -0.587,-0.216 -0.964,-0.216c-0.192,0 -0.387,0.031 -0.586,0.089c-0.2,0.059 -0.381,0.149 -0.544,0.272c-0.162,0.121 -0.293,0.276 -0.393,0.459c-0.1,0.185 -0.15,0.404 -0.15,0.655c0,0.251 0.048,0.457 0.144,0.62c0.095,0.162 0.224,0.301 0.381,0.416c0.158,0.114 0.339,0.208 0.542,0.282c0.203,0.073 0.414,0.148 0.636,0.222c0.272,0.088 0.546,0.185 0.822,0.288c0.277,0.102 0.525,0.238 0.746,0.404c0.22,0.166 0.401,0.377 0.541,0.632c0.14,0.254 0.21,0.577 0.21,0.969c0,0.391 -0.075,0.73 -0.223,1.014c-0.151,0.284 -0.344,0.518 -0.582,0.703c-0.239,0.185 -0.511,0.321 -0.819,0.411c-0.305,0.088 -0.614,0.133 -0.925,0.133c-0.235,0 -0.471,-0.025 -0.708,-0.072c-0.237,-0.05 -0.463,-0.122 -0.677,-0.217c-0.213,-0.097 -0.412,-0.218 -0.597,-0.365c-0.186,-0.149 -0.347,-0.318 -0.488,-0.51l0.686,-0.51c0.171,0.281 0.409,0.515 0.715,0.704c0.307,0.188 0.668,0.282 1.081,0.282c0.2,0 0.403,-0.031 0.609,-0.094c0.207,-0.063 0.394,-0.159 0.559,-0.289c0.167,-0.128 0.304,-0.287 0.411,-0.476c0.108,-0.187 0.161,-0.408 0.161,-0.659c0,-0.273 -0.053,-0.5 -0.161,-0.681c-0.107,-0.181 -0.249,-0.332 -0.427,-0.455c-0.177,-0.121 -0.38,-0.223 -0.609,-0.304c-0.228,-0.081 -0.469,-0.163 -0.719,-0.244c-0.26,-0.08 -0.515,-0.173 -0.766,-0.276c-0.25,-0.104 -0.475,-0.239 -0.676,-0.404c-0.199,-0.167 -0.359,-0.372 -0.482,-0.616c-0.121,-0.243 -0.183,-0.543 -0.183,-0.898c0,-0.376 0.077,-0.701 0.228,-0.974c0.151,-0.273 0.349,-0.499 0.593,-0.677c0.243,-0.176 0.512,-0.306 0.808,-0.387c0.296,-0.081 0.588,-0.122 0.876,-0.122c0.531,0 0.986,0.094 1.363,0.283c0.376,0.188 0.661,0.411 0.853,0.67l-0.632,0.51Z" style="fill:#7e8083;fill-rule:nonzero;"></path><defs><linearGradient id="_Linear2" x1="0" y1="0" x2="1" y2="0" gradientUnits="userSpaceOnUse" gradientTransform="matrix(-33.8004,-23.0312,23.0312,-33.8004,36.8371,41.0884)"><stop offset="0" style="stop-color:#4e131e;stop-opacity:1"></stop><stop offset="1" style="stop-color:#cd163f;stop-opacity:1"></stop></linearGradient><linearGradient id="_Linear4" x1="0" y1="0" x2="1" y2="0" gradientUnits="userSpaceOnUse" gradientTransform="matrix(-36.5556,-24.9086,24.9086,-36.5556,63.2287,29.154)"><stop offset="0" style="stop-color:#4e131e;stop-opacity:1"></stop><stop offset="1" style="stop-color:#cd163f;stop-opacity:1"></stop></linearGradient></defs></svg>