<?xml version="1.0" encoding="UTF-8" standalone="no"?> <svg xmlns="http://www.w3.org/2000/svg" xmlns:xlink="http://www.w3.org/1999/xlink" xmlns:serif="http://www.serif.com/" width="500" height="153" viewBox="0 0 171 53" xml:space="preserve" style="fill-rule:evenodd;clip-rule:evenodd;stroke-linejoin:round;stroke-miterlimit:2;"><path d="M64.042,7.193l1.976,0l0,9.349l4.722,0l0,1.757l-6.698,0l0,-11.106Z" style="fill:#fff;fill-rule:nonzero;"></path><path d="M72.715,7.193l7.358,0l0,1.725l-5.381,0l0,2.823l5.098,0l0,1.663l-5.098,0l0,3.138l5.663,0l0,1.757l-7.64,0l0,-11.106Z" style="fill:#fff;fill-rule:nonzero;"></path><path d="M82.944,7.193l7.357,0l0,1.725l-5.381,0l0,2.823l5.099,0l0,1.663l-5.099,0l0,3.138l5.663,0l0,1.757l-7.639,0l0,-11.106Z" style="fill:#fff;fill-rule:nonzero;"></path><path d="M101.681,8.432c-0.364,0 -0.671,0.115 -0.919,0.345c-0.25,0.229 -0.375,0.528 -0.375,0.894c0,0.314 0.086,0.617 0.257,0.909c0.172,0.294 0.413,0.581 0.726,0.864c0.217,-0.096 0.423,-0.2 0.615,-0.314c0.193,-0.115 0.361,-0.246 0.507,-0.393c0.145,-0.146 0.26,-0.307 0.343,-0.486c0.084,-0.178 0.125,-0.371 0.125,-0.58c0,-0.335 -0.12,-0.625 -0.359,-0.871c-0.24,-0.246 -0.546,-0.368 -0.92,-0.368m-0.916,4.909c-0.21,0.074 -0.407,0.163 -0.59,0.267c-0.183,0.104 -0.345,0.23 -0.486,0.377c-0.142,0.146 -0.254,0.321 -0.337,0.525c-0.084,0.204 -0.126,0.438 -0.126,0.699c0,0.272 0.056,0.517 0.165,0.736c0.109,0.22 0.253,0.404 0.432,0.55c0.177,0.147 0.375,0.259 0.596,0.337c0.22,0.078 0.433,0.118 0.643,0.118c0.46,0 0.852,-0.1 1.176,-0.299c0.324,-0.198 0.623,-0.48 0.894,-0.846l-2.367,-2.464Zm4.704,2.307l2.589,2.651l-2.51,0l-1.224,-1.271c-0.365,0.429 -0.81,0.785 -1.333,1.067c-0.523,0.282 -1.188,0.423 -1.992,0.423c-0.492,0 -0.962,-0.068 -1.412,-0.204c-0.449,-0.135 -0.844,-0.339 -1.184,-0.612c-0.34,-0.27 -0.612,-0.609 -0.815,-1.011c-0.204,-0.402 -0.306,-0.871 -0.306,-1.405c0,-0.407 0.067,-0.776 0.204,-1.106c0.137,-0.328 0.318,-0.624 0.543,-0.885c0.225,-0.261 0.484,-0.486 0.771,-0.675c0.29,-0.188 0.592,-0.351 0.906,-0.486c-0.368,-0.376 -0.661,-0.766 -0.876,-1.169c-0.216,-0.403 -0.325,-0.844 -0.325,-1.326c0,-0.47 0.091,-0.877 0.275,-1.223c0.182,-0.345 0.423,-0.63 0.72,-0.855c0.299,-0.225 0.634,-0.389 1.005,-0.494c0.37,-0.105 0.749,-0.157 1.137,-0.157c0.398,0 0.781,0.055 1.153,0.164c0.371,0.11 0.698,0.278 0.98,0.502c0.282,0.226 0.511,0.508 0.683,0.848c0.172,0.34 0.258,0.735 0.258,1.184c0,0.356 -0.059,0.683 -0.18,0.981c-0.12,0.297 -0.282,0.569 -0.486,0.815c-0.204,0.246 -0.445,0.463 -0.722,0.651c-0.277,0.189 -0.572,0.356 -0.886,0.502l1.82,1.899l1.286,-2.024l2.15,0l-2.229,3.216Z" style="fill:#fff;fill-rule:nonzero;"></path><path d="M75.679,29.313l-1.709,-4.518l-1.743,4.518l3.452,0Zm-2.51,-6.87l1.71,0l4.785,11.105l-2.26,0l-1.034,-2.541l-4.816,0l-1.004,2.541l-2.213,0l4.832,-11.105Z" style="fill:#fff;fill-rule:nonzero;"></path><path d="M87.083,24.764c-0.208,-0.272 -0.503,-0.5 -0.886,-0.683c-0.382,-0.182 -0.766,-0.274 -1.153,-0.274c-0.229,0 -0.46,0.028 -0.69,0.086c-0.23,0.059 -0.439,0.147 -0.628,0.267c-0.187,0.12 -0.342,0.277 -0.462,0.47c-0.12,0.195 -0.18,0.427 -0.18,0.699c0,0.251 0.051,0.465 0.156,0.642c0.105,0.178 0.249,0.33 0.432,0.455c0.183,0.126 0.405,0.236 0.667,0.331c0.26,0.093 0.548,0.187 0.863,0.282c0.355,0.114 0.724,0.245 1.105,0.392c0.381,0.146 0.731,0.34 1.052,0.58c0.318,0.24 0.58,0.543 0.783,0.91c0.204,0.366 0.306,0.821 0.306,1.364c0,0.597 -0.109,1.117 -0.33,1.561c-0.219,0.445 -0.511,0.815 -0.878,1.106c-0.365,0.294 -0.795,0.513 -1.285,0.659c-0.492,0.146 -1.01,0.22 -1.554,0.22c-0.721,0 -1.428,-0.133 -2.118,-0.4c-0.689,-0.266 -1.255,-0.662 -1.694,-1.184l1.412,-1.319c0.272,0.377 0.636,0.675 1.091,0.895c0.454,0.22 0.902,0.328 1.341,0.328c0.229,0 0.465,-0.027 0.706,-0.085c0.24,-0.056 0.457,-0.155 0.651,-0.29c0.193,-0.135 0.349,-0.306 0.47,-0.51c0.12,-0.204 0.181,-0.458 0.181,-0.761c0,-0.292 -0.068,-0.535 -0.204,-0.73c-0.137,-0.192 -0.319,-0.36 -0.55,-0.501c-0.23,-0.141 -0.501,-0.264 -0.815,-0.369c-0.314,-0.105 -0.642,-0.213 -0.988,-0.329c-0.335,-0.105 -0.67,-0.23 -1.004,-0.376c-0.335,-0.147 -0.636,-0.34 -0.903,-0.581c-0.266,-0.241 -0.483,-0.536 -0.651,-0.886c-0.166,-0.351 -0.251,-0.787 -0.251,-1.311c0,-0.564 0.119,-1.05 0.354,-1.458c0.234,-0.408 0.543,-0.745 0.925,-1.012c0.382,-0.267 0.815,-0.465 1.302,-0.596c0.487,-0.131 0.981,-0.196 1.483,-0.196c0.564,0 1.136,0.1 1.717,0.297c0.58,0.2 1.085,0.497 1.514,0.895l-1.287,1.412Z" style="fill:#fff;fill-rule:nonzero;"></path><path d="M96.747,24.764c-0.209,-0.272 -0.504,-0.5 -0.886,-0.683c-0.383,-0.182 -0.767,-0.274 -1.154,-0.274c-0.229,0 -0.46,0.028 -0.69,0.086c-0.23,0.059 -0.438,0.147 -0.627,0.267c-0.189,0.12 -0.343,0.277 -0.462,0.47c-0.121,0.195 -0.181,0.427 -0.181,0.699c0,0.251 0.052,0.465 0.157,0.642c0.104,0.178 0.248,0.33 0.431,0.455c0.184,0.126 0.405,0.236 0.667,0.331c0.261,0.093 0.549,0.187 0.863,0.282c0.355,0.114 0.724,0.245 1.105,0.392c0.382,0.146 0.732,0.34 1.052,0.58c0.319,0.24 0.58,0.543 0.784,0.91c0.204,0.366 0.306,0.821 0.306,1.364c0,0.597 -0.11,1.117 -0.33,1.561c-0.219,0.445 -0.512,0.815 -0.879,1.106c-0.365,0.294 -0.794,0.513 -1.285,0.659c-0.492,0.146 -1.01,0.22 -1.553,0.22c-0.722,0 -1.428,-0.133 -2.118,-0.4c-0.69,-0.266 -1.255,-0.662 -1.695,-1.184l1.412,-1.319c0.272,0.377 0.636,0.675 1.091,0.895c0.455,0.22 0.902,0.328 1.341,0.328c0.23,0 0.465,-0.027 0.706,-0.085c0.24,-0.056 0.457,-0.155 0.652,-0.29c0.192,-0.135 0.348,-0.306 0.469,-0.51c0.12,-0.204 0.182,-0.458 0.182,-0.761c0,-0.292 -0.069,-0.535 -0.205,-0.73c-0.136,-0.192 -0.319,-0.36 -0.55,-0.501c-0.229,-0.141 -0.501,-0.264 -0.815,-0.369c-0.314,-0.105 -0.643,-0.213 -0.988,-0.329c-0.335,-0.105 -0.67,-0.23 -1.004,-0.376c-0.335,-0.147 -0.635,-0.34 -0.902,-0.581c-0.267,-0.241 -0.484,-0.536 -0.651,-0.886c-0.167,-0.351 -0.252,-0.787 -0.252,-1.311c0,-0.564 0.119,-1.05 0.354,-1.458c0.235,-0.408 0.543,-0.745 0.925,-1.012c0.382,-0.267 0.816,-0.465 1.302,-0.596c0.486,-0.131 0.981,-0.196 1.483,-0.196c0.565,0 1.136,0.1 1.717,0.297c0.581,0.2 1.085,0.497 1.515,0.895l-1.287,1.412Z" style="fill:#fff;fill-rule:nonzero;"></path><path d="M102.363,27.964c0,0.596 0.091,1.142 0.274,1.639c0.183,0.497 0.445,0.928 0.784,1.294c0.34,0.367 0.743,0.651 1.209,0.855c0.465,0.204 0.98,0.307 1.545,0.307c0.564,0 1.082,-0.103 1.553,-0.307c0.471,-0.204 0.875,-0.488 1.215,-0.855c0.34,-0.366 0.602,-0.797 0.786,-1.294c0.182,-0.497 0.273,-1.043 0.273,-1.639c0,-0.575 -0.091,-1.109 -0.273,-1.601c-0.184,-0.49 -0.444,-0.919 -0.777,-1.286c-0.335,-0.366 -0.738,-0.653 -1.209,-0.862c-0.471,-0.21 -0.993,-0.314 -1.568,-0.314c-0.576,0 -1.096,0.104 -1.561,0.314c-0.465,0.209 -0.865,0.496 -1.2,0.862c-0.336,0.367 -0.594,0.796 -0.777,1.286c-0.183,0.492 -0.274,1.026 -0.274,1.601m-2.15,0c0,-0.889 0.15,-1.691 0.448,-2.408c0.298,-0.716 0.711,-1.326 1.239,-1.827c0.527,-0.503 1.155,-0.889 1.883,-1.161c0.727,-0.273 1.519,-0.408 2.376,-0.408c0.867,0 1.668,0.135 2.4,0.408c0.732,0.272 1.365,0.658 1.898,1.161c0.534,0.501 0.949,1.111 1.246,1.827c0.3,0.717 0.448,1.519 0.448,2.408c0,0.868 -0.148,1.66 -0.447,2.376c-0.297,0.717 -0.713,1.333 -1.247,1.851c-0.533,0.518 -1.165,0.921 -1.898,1.208c-0.731,0.288 -1.532,0.431 -2.4,0.431c-0.857,0 -1.649,-0.143 -2.376,-0.431c-0.728,-0.287 -1.355,-0.69 -1.883,-1.208c-0.528,-0.518 -0.941,-1.134 -1.239,-1.851c-0.298,-0.716 -0.447,-1.508 -0.447,-2.376" style="fill:#fff;fill-rule:nonzero;"></path><path d="M122.74,25.046c-0.294,-0.397 -0.675,-0.688 -1.146,-0.871c-0.471,-0.182 -0.931,-0.273 -1.38,-0.273c-0.576,0 -1.098,0.104 -1.569,0.312c-0.471,0.21 -0.876,0.498 -1.215,0.864c-0.341,0.366 -0.603,0.795 -0.785,1.286c-0.183,0.491 -0.274,1.025 -0.274,1.6c0,0.606 0.088,1.161 0.266,1.662c0.178,0.503 0.432,0.933 0.761,1.295c0.33,0.361 0.725,0.64 1.184,0.839c0.46,0.199 0.978,0.299 1.554,0.299c0.596,0 1.124,-0.119 1.585,-0.354c0.46,-0.235 0.83,-0.546 1.113,-0.933l1.584,1.113c-0.49,0.618 -1.093,1.096 -1.804,1.436c-0.711,0.34 -1.542,0.509 -2.494,0.509c-0.868,0 -1.666,-0.143 -2.392,-0.431c-0.728,-0.287 -1.353,-0.69 -1.874,-1.208c-0.524,-0.517 -0.932,-1.134 -1.224,-1.851c-0.293,-0.715 -0.44,-1.508 -0.44,-2.376c0,-0.888 0.155,-1.692 0.462,-2.408c0.309,-0.716 0.733,-1.326 1.272,-1.828c0.538,-0.501 1.173,-0.888 1.905,-1.16c0.732,-0.272 1.527,-0.409 2.385,-0.409c0.356,0 0.726,0.035 1.114,0.102c0.387,0.069 0.758,0.173 1.113,0.315c0.356,0.141 0.691,0.316 1.005,0.525c0.313,0.209 0.58,0.461 0.8,0.753l-1.506,1.192Z" style="fill:#fff;fill-rule:nonzero;"></path><rect x="126.301" y="22.442" width="1.977" height="11.107" style="fill:#fff;"></rect><path d="M137.375,29.313l-1.708,-4.518l-1.743,4.518l3.451,0Zm-2.509,-6.87l1.71,0l4.785,11.105l-2.261,0l-1.034,-2.541l-4.816,0l-1.004,2.541l-2.212,0l4.832,-11.105Z" style="fill:#fff;fill-rule:nonzero;"></path><path d="M144.419,24.168l-3.404,0l0,-1.725l8.785,0l0,1.725l-3.404,0l0,9.381l-1.977,0l0,-9.381Z" style="fill:#fff;fill-rule:nonzero;"></path><path d="M151.745,22.442l7.357,0l0,1.725l-5.381,0l0,2.824l5.098,0l0,1.663l-5.098,0l0,3.138l5.664,0l0,1.757l-7.64,0l0,-11.107Z" style="fill:#fff;fill-rule:nonzero;"></path><path d="M167.635,24.764c-0.209,-0.272 -0.503,-0.5 -0.886,-0.683c-0.382,-0.182 -0.766,-0.274 -1.153,-0.274c-0.229,0 -0.46,0.028 -0.691,0.086c-0.229,0.059 -0.438,0.147 -0.627,0.267c-0.188,0.12 -0.342,0.277 -0.462,0.47c-0.12,0.195 -0.18,0.427 -0.18,0.699c0,0.251 0.051,0.465 0.156,0.642c0.105,0.178 0.249,0.33 0.432,0.455c0.183,0.126 0.405,0.236 0.666,0.331c0.261,0.093 0.549,0.187 0.864,0.282c0.355,0.114 0.723,0.245 1.105,0.392c0.381,0.146 0.731,0.34 1.052,0.58c0.318,0.24 0.58,0.543 0.783,0.91c0.204,0.366 0.306,0.821 0.306,1.364c0,0.597 -0.109,1.117 -0.33,1.561c-0.219,0.445 -0.512,0.815 -0.878,1.106c-0.366,0.294 -0.795,0.513 -1.285,0.659c-0.492,0.146 -1.01,0.22 -1.554,0.22c-0.721,0 -1.428,-0.133 -2.118,-0.4c-0.69,-0.266 -1.255,-0.662 -1.694,-1.184l1.412,-1.319c0.272,0.377 0.636,0.675 1.09,0.895c0.455,0.22 0.903,0.328 1.342,0.328c0.229,0 0.465,-0.027 0.706,-0.085c0.24,-0.056 0.457,-0.155 0.651,-0.29c0.193,-0.135 0.349,-0.306 0.47,-0.51c0.12,-0.204 0.181,-0.458 0.181,-0.761c0,-0.292 -0.069,-0.535 -0.204,-0.73c-0.137,-0.192 -0.319,-0.36 -0.55,-0.501c-0.23,-0.141 -0.501,-0.264 -0.815,-0.369c-0.314,-0.105 -0.643,-0.213 -0.988,-0.329c-0.336,-0.105 -0.67,-0.23 -1.005,-0.376c-0.334,-0.147 -0.635,-0.34 -0.902,-0.581c-0.266,-0.241 -0.483,-0.536 -0.651,-0.886c-0.166,-0.351 -0.251,-0.787 -0.251,-1.311c0,-0.564 0.119,-1.05 0.354,-1.458c0.234,-0.408 0.543,-0.745 0.925,-1.012c0.381,-0.267 0.815,-0.465 1.302,-0.596c0.487,-0.131 0.98,-0.196 1.483,-0.196c0.564,0 1.136,0.1 1.717,0.297c0.58,0.2 1.085,0.497 1.514,0.895l-1.287,1.412Z" style="fill:#fff;fill-rule:nonzero;"></path><path d="M38.024,8.958c0.138,-0.228 0.596,-0.905 1.337,-1.837c0.262,-0.331 0.562,-0.58 0.878,-0.773c-3.376,-0.003 -8.353,0.014 -8.353,0.014l-1.18,0c-0.291,0 -0.571,0.03 -0.835,0.081c-1.686,0.364 -2.716,1.721 -2.729,1.737c-1.712,2.185 -5.319,8.367 -8.5,13.822c-2.689,4.608 -5.012,8.589 -5.834,9.565c-0.746,0.887 -1.474,1.454 -2.111,1.829l10.953,0c1.083,0 1.906,-0.255 2.525,-0.603c0.834,-0.541 1.178,-1.242 1.266,-1.452c0.303,-0.731 10.112,-18.363 10.528,-19.112c0.179,-0.332 0.626,-1.029 1.101,-1.765c0.344,-0.537 0.698,-1.086 0.954,-1.506" style="fill:#fff;fill-rule:nonzero;"></path><path d="M57.417,30.795l-11.994,-22.819c-0.597,-1.165 -1.482,-1.558 -2.154,-1.6c0.005,-0.002 0.015,-0.002 0.015,-0.004c0.001,-0.002 -0.012,-0.002 -0.034,-0.005c-0.062,0.004 -0.127,0.004 -0.203,0.003c-0.612,-0.019 -2.23,-0.075 -3.195,1.14c-0.72,0.909 -1.161,1.559 -1.292,1.775c-0.258,0.423 -0.616,0.977 -0.963,1.519c-0.447,0.695 -0.908,1.412 -1.077,1.727c-0.152,0.272 -0.311,0.559 -0.475,0.852l8.4,17.397c0.249,0.324 0.838,2.617 3.116,2.617l8.569,0c1.34,0 2.082,-1.096 1.287,-2.602" style="fill:#fff;fill-rule:nonzero;"></path><path d="M9.09,33.396c0.653,-0.16 1.915,-0.661 3.238,-2.233c0.563,-0.667 1.959,-2.978 3.645,-5.843l-1.208,0c-1.446,0 -2.617,-1.172 -2.617,-2.617l0,-20.087c0,-1.445 -1.172,-2.616 -2.618,-2.616l-6.913,0c-1.446,0 -2.617,1.171 -2.617,2.616l0,28.163c0,1.445 1.171,2.617 2.617,2.617l6.473,0Z" style="fill:#fff;fill-rule:nonzero;"></path><path d="M6.458,50.913c-0.102,0.153 -0.224,0.297 -0.37,0.434c-0.144,0.135 -0.311,0.255 -0.501,0.36c-0.189,0.102 -0.399,0.185 -0.628,0.246c-0.23,0.059 -0.479,0.089 -0.751,0.089c-0.454,0 -0.872,-0.079 -1.257,-0.238c-0.385,-0.158 -0.717,-0.377 -0.994,-0.658c-0.278,-0.28 -0.494,-0.612 -0.65,-0.997c-0.155,-0.386 -0.233,-0.807 -0.233,-1.266c0,-0.458 0.079,-0.881 0.238,-1.265c0.159,-0.384 0.377,-0.719 0.658,-0.999c0.28,-0.279 0.611,-0.499 0.993,-0.658c0.383,-0.158 0.797,-0.238 1.245,-0.238c0.221,0 0.438,0.024 0.649,0.069c0.212,0.047 0.412,0.111 0.599,0.195c0.187,0.083 0.357,0.183 0.509,0.3c0.153,0.117 0.281,0.249 0.383,0.396l-0.509,0.374c-0.063,-0.096 -0.147,-0.192 -0.252,-0.288c-0.105,-0.096 -0.227,-0.183 -0.369,-0.255c-0.141,-0.073 -0.295,-0.134 -0.462,-0.179c-0.167,-0.045 -0.348,-0.067 -0.54,-0.067c-0.391,0 -0.741,0.07 -1.05,0.211c-0.307,0.14 -0.569,0.332 -0.784,0.571c-0.216,0.241 -0.38,0.518 -0.494,0.835c-0.112,0.315 -0.169,0.648 -0.169,0.998c0,0.35 0.059,0.682 0.174,0.999c0.117,0.316 0.281,0.595 0.498,0.834c0.214,0.24 0.476,0.43 0.785,0.571c0.308,0.141 0.655,0.212 1.04,0.212c0.345,0 0.673,-0.071 0.985,-0.212c0.311,-0.142 0.572,-0.368 0.782,-0.679l0.475,0.305Z" style="fill:#fff;fill-rule:nonzero;"></path><path d="M13.304,48.887c0,-0.35 -0.056,-0.683 -0.17,-1c-0.114,-0.317 -0.277,-0.595 -0.492,-0.835c-0.216,-0.24 -0.478,-0.431 -0.786,-0.572c-0.309,-0.142 -0.656,-0.213 -1.041,-0.213c-0.385,0 -0.732,0.071 -1.04,0.213c-0.309,0.141 -0.571,0.332 -0.785,0.572c-0.217,0.24 -0.38,0.518 -0.493,0.835c-0.113,0.317 -0.17,0.65 -0.17,1c0,0.351 0.057,0.684 0.17,1.001c0.113,0.317 0.276,0.594 0.493,0.831c0.214,0.237 0.476,0.426 0.785,0.567c0.308,0.142 0.655,0.213 1.04,0.213c0.385,0 0.732,-0.071 1.041,-0.213c0.308,-0.141 0.57,-0.33 0.786,-0.567c0.215,-0.237 0.378,-0.514 0.492,-0.831c0.114,-0.317 0.17,-0.65 0.17,-1.001m0.645,-0.004c0,0.459 -0.079,0.881 -0.238,1.266c-0.158,0.384 -0.377,0.717 -0.658,0.999c-0.28,0.279 -0.612,0.498 -0.993,0.656c-0.383,0.159 -0.798,0.238 -1.245,0.238c-0.447,0 -0.862,-0.079 -1.244,-0.238c-0.382,-0.158 -0.713,-0.377 -0.994,-0.656c-0.28,-0.282 -0.5,-0.615 -0.658,-0.999c-0.158,-0.385 -0.238,-0.807 -0.238,-1.266c0,-0.459 0.08,-0.879 0.238,-1.265c0.158,-0.385 0.378,-0.718 0.658,-0.998c0.281,-0.281 0.612,-0.5 0.994,-0.658c0.382,-0.159 0.797,-0.238 1.244,-0.238c0.447,0 0.862,0.079 1.245,0.238c0.381,0.158 0.713,0.377 0.993,0.658c0.281,0.28 0.5,0.613 0.658,0.998c0.159,0.386 0.238,0.806 0.238,1.265" style="fill:#fff;fill-rule:nonzero;"></path><path d="M18.79,50.853l0.009,0l2.012,-4.977l0.934,0l0,6.014l-0.61,0l0,-5.224l-0.018,0l-2.174,5.224l-0.322,0l-2.175,-5.224l-0.017,0l0,5.224l-0.611,0l0,-6.014l0.934,0l2.038,4.977Z" style="fill:#fff;fill-rule:nonzero;"></path><path d="M26.91,50.853l0.008,0l2.013,-4.977l0.934,0l0,6.014l-0.611,0l0,-5.224l-0.017,0l-2.174,5.224l-0.323,0l-2.174,-5.224l-0.017,0l0,5.224l-0.612,0l0,-6.014l0.934,0l2.039,4.977Z" style="fill:#fff;fill-rule:nonzero;"></path><path d="M32.668,51.346l3.219,0l0,0.543l-3.83,0l0,-6.013l3.729,0l0,0.545l-3.118,0l0,2.064l2.914,0l0,0.543l-2.914,0l0,2.318Z" style="fill:#fff;fill-rule:nonzero;"></path><path d="M38.291,48.551l1.061,0c0.493,0 0.872,-0.088 1.138,-0.267c0.267,-0.178 0.4,-0.445 0.4,-0.803c0,-0.197 -0.037,-0.364 -0.111,-0.5c-0.074,-0.137 -0.176,-0.247 -0.305,-0.332c-0.131,-0.084 -0.29,-0.147 -0.476,-0.186c-0.187,-0.04 -0.394,-0.06 -0.62,-0.06l-1.087,0l0,2.148Zm0,3.338l-0.612,0l0,-6.012l1.768,0c0.294,0 0.566,0.028 0.819,0.085c0.251,0.056 0.469,0.149 0.654,0.276c0.184,0.127 0.326,0.292 0.428,0.496c0.102,0.205 0.153,0.454 0.153,0.747c0,0.221 -0.04,0.422 -0.119,0.604c-0.079,0.181 -0.187,0.338 -0.323,0.472c-0.135,0.132 -0.297,0.239 -0.483,0.318c-0.188,0.079 -0.392,0.13 -0.612,0.153l1.758,2.861l-0.748,0l-1.664,-2.81l-1.019,0l0,2.81Z" style="fill:#fff;fill-rule:nonzero;"></path><path d="M48.423,50.913c-0.102,0.153 -0.224,0.297 -0.37,0.434c-0.144,0.135 -0.311,0.255 -0.501,0.36c-0.189,0.102 -0.399,0.185 -0.629,0.246c-0.229,0.059 -0.479,0.089 -0.751,0.089c-0.453,0 -0.872,-0.079 -1.257,-0.238c-0.384,-0.158 -0.716,-0.377 -0.994,-0.658c-0.278,-0.28 -0.493,-0.612 -0.65,-0.997c-0.154,-0.386 -0.233,-0.807 -0.233,-1.266c0,-0.458 0.08,-0.881 0.238,-1.265c0.159,-0.384 0.378,-0.719 0.658,-0.999c0.281,-0.279 0.612,-0.499 0.994,-0.658c0.382,-0.158 0.797,-0.238 1.244,-0.238c0.221,0 0.438,0.024 0.649,0.069c0.213,0.047 0.413,0.111 0.6,0.195c0.187,0.083 0.357,0.183 0.509,0.3c0.153,0.117 0.28,0.249 0.382,0.396l-0.509,0.374c-0.062,-0.096 -0.146,-0.192 -0.251,-0.288c-0.105,-0.096 -0.227,-0.183 -0.369,-0.255c-0.142,-0.073 -0.295,-0.134 -0.462,-0.179c-0.168,-0.045 -0.348,-0.067 -0.54,-0.067c-0.391,0 -0.741,0.07 -1.05,0.211c-0.308,0.14 -0.57,0.332 -0.784,0.571c-0.217,0.241 -0.38,0.518 -0.494,0.835c-0.112,0.315 -0.17,0.648 -0.17,0.998c0,0.35 0.059,0.682 0.175,0.999c0.116,0.316 0.281,0.595 0.497,0.834c0.215,0.24 0.477,0.43 0.785,0.571c0.309,0.141 0.656,0.212 1.041,0.212c0.345,0 0.673,-0.071 0.985,-0.212c0.311,-0.142 0.572,-0.368 0.782,-0.679l0.475,0.305Z" style="fill:#fff;fill-rule:nonzero;"></path><rect x="50.071" y="45.877" width="0.611" height="6.013" style="fill:#fff;"></rect><path d="M53.715,49.749l2.649,0l-1.325,-3.193l-1.324,3.193Zm-0.884,2.141l-0.671,0l2.599,-6.014l0.594,0l2.583,6.014l-0.681,0l-0.661,-1.58l-3.109,0l-0.654,1.58Z" style="fill:#fff;fill-rule:nonzero;"></path><path d="M60.025,51.346l2.803,0l0,0.543l-3.415,0l0,-6.013l0.612,0l0,5.47Z" style="fill:#fff;fill-rule:nonzero;"></path><path d="M67.465,48.551l1.062,0c0.492,0 0.872,-0.088 1.137,-0.267c0.267,-0.178 0.4,-0.445 0.4,-0.803c0,-0.197 -0.037,-0.364 -0.111,-0.5c-0.073,-0.137 -0.175,-0.247 -0.305,-0.332c-0.13,-0.084 -0.289,-0.147 -0.476,-0.186c-0.186,-0.04 -0.394,-0.06 -0.621,-0.06l-1.086,0l0,2.148Zm0,3.338l-0.612,0l0,-6.012l1.767,0c0.294,0 0.567,0.028 0.82,0.085c0.251,0.056 0.469,0.149 0.653,0.276c0.184,0.127 0.327,0.292 0.429,0.496c0.102,0.205 0.153,0.454 0.153,0.747c0,0.221 -0.04,0.422 -0.12,0.604c-0.077,0.181 -0.186,0.338 -0.321,0.472c-0.136,0.132 -0.298,0.239 -0.484,0.318c-0.188,0.079 -0.391,0.13 -0.611,0.153l1.757,2.861l-0.748,0l-1.664,-2.81l-1.019,0l0,2.81Z" style="fill:#fff;fill-rule:nonzero;"></path><path d="M73.147,51.346l3.219,0l0,0.543l-3.831,0l0,-6.013l3.729,0l0,0.545l-3.117,0l0,2.064l2.913,0l0,0.543l-2.913,0l0,2.318Z" style="fill:#fff;fill-rule:nonzero;"></path><path d="M78.999,49.749l2.649,0l-1.324,-3.193l-1.325,3.193Zm-0.883,2.141l-0.672,0l2.6,-6.014l0.594,0l2.582,6.014l-0.68,0l-0.662,-1.58l-3.108,0l-0.654,1.58Z" style="fill:#fff;fill-rule:nonzero;"></path><path d="M85.309,51.346l2.803,0l0,0.543l-3.414,0l0,-6.013l0.611,0l0,5.47Z" style="fill:#fff;fill-rule:nonzero;"></path><path d="M92.749,51.346l3.219,0l0,0.543l-3.83,0l0,-6.013l3.728,0l0,0.545l-3.117,0l0,2.064l2.914,0l0,0.543l-2.914,0l0,2.318Z" style="fill:#fff;fill-rule:nonzero;"></path><path d="M100.673,46.845c-0.129,-0.182 -0.297,-0.327 -0.501,-0.437c-0.204,-0.111 -0.45,-0.167 -0.738,-0.167c-0.148,0 -0.298,0.024 -0.451,0.069c-0.153,0.044 -0.292,0.114 -0.416,0.208c-0.124,0.094 -0.225,0.211 -0.301,0.352c-0.077,0.142 -0.116,0.309 -0.116,0.501c0,0.193 0.037,0.352 0.111,0.476c0.073,0.124 0.171,0.23 0.291,0.319c0.122,0.087 0.261,0.16 0.416,0.216c0.156,0.057 0.317,0.114 0.487,0.17c0.209,0.069 0.419,0.142 0.631,0.221c0.212,0.08 0.402,0.182 0.572,0.31c0.169,0.127 0.308,0.289 0.414,0.484c0.108,0.195 0.162,0.443 0.162,0.743c0,0.3 -0.058,0.559 -0.171,0.777c-0.115,0.219 -0.264,0.398 -0.447,0.539c-0.183,0.142 -0.392,0.246 -0.627,0.314c-0.234,0.068 -0.471,0.102 -0.708,0.102c-0.181,0 -0.363,-0.018 -0.544,-0.054c-0.182,-0.038 -0.355,-0.093 -0.518,-0.166c-0.165,-0.074 -0.318,-0.167 -0.459,-0.28c-0.141,-0.114 -0.266,-0.244 -0.374,-0.391l0.527,-0.39c0.13,0.214 0.313,0.394 0.547,0.538c0.236,0.145 0.512,0.217 0.829,0.217c0.153,0 0.308,-0.024 0.468,-0.072c0.157,-0.048 0.3,-0.122 0.427,-0.221c0.127,-0.099 0.233,-0.22 0.315,-0.364c0.082,-0.146 0.123,-0.314 0.123,-0.506c0,-0.21 -0.041,-0.384 -0.123,-0.523c-0.082,-0.137 -0.191,-0.254 -0.327,-0.348c-0.136,-0.094 -0.291,-0.17 -0.467,-0.233c-0.176,-0.063 -0.36,-0.125 -0.553,-0.187c-0.197,-0.062 -0.393,-0.134 -0.585,-0.213c-0.193,-0.08 -0.365,-0.183 -0.519,-0.31c-0.153,-0.127 -0.275,-0.284 -0.369,-0.471c-0.093,-0.187 -0.14,-0.416 -0.14,-0.688c0,-0.289 0.059,-0.537 0.174,-0.748c0.116,-0.209 0.268,-0.382 0.455,-0.518c0.186,-0.135 0.393,-0.234 0.621,-0.297c0.225,-0.061 0.449,-0.093 0.669,-0.093c0.408,0 0.756,0.072 1.046,0.216c0.289,0.144 0.505,0.316 0.653,0.514l-0.484,0.391Z" style="fill:#fff;fill-rule:nonzero;"></path><path d="M104.92,51.889l-0.612,0l0,-5.469l-2.012,0l0,-0.543l4.637,0l0,0.543l-2.013,0l0,5.469Z" style="fill:#fff;fill-rule:nonzero;"></path><path d="M108.759,49.749l2.65,0l-1.325,-3.193l-1.325,3.193Zm-0.883,2.141l-0.672,0l2.6,-6.014l0.594,0l2.582,6.014l-0.68,0l-0.662,-1.58l-3.108,0l-0.654,1.58Z" style="fill:#fff;fill-rule:nonzero;"></path><path d="M115.876,51.889l-0.611,0l0,-5.469l-2.013,0l0,-0.543l4.638,0l0,0.543l-2.014,0l0,5.469Z" style="fill:#fff;fill-rule:nonzero;"></path><path d="M119.995,51.346l3.219,0l0,0.543l-3.83,0l0,-6.013l3.729,0l0,0.545l-3.118,0l0,2.064l2.914,0l0,0.543l-2.914,0l0,2.318Z" style="fill:#fff;fill-rule:nonzero;"></path><path d="M130.637,46.845c-0.13,-0.182 -0.296,-0.327 -0.5,-0.437c-0.205,-0.111 -0.451,-0.167 -0.74,-0.167c-0.147,0 -0.297,0.024 -0.45,0.069c-0.153,0.044 -0.292,0.114 -0.416,0.208c-0.124,0.094 -0.225,0.211 -0.301,0.352c-0.077,0.142 -0.115,0.309 -0.115,0.501c0,0.193 0.037,0.352 0.11,0.476c0.073,0.124 0.171,0.23 0.292,0.319c0.121,0.087 0.26,0.16 0.415,0.216c0.156,0.057 0.318,0.114 0.487,0.17c0.209,0.069 0.419,0.142 0.631,0.221c0.212,0.08 0.403,0.182 0.571,0.31c0.17,0.127 0.309,0.289 0.415,0.484c0.108,0.195 0.162,0.443 0.162,0.743c0,0.3 -0.058,0.559 -0.172,0.777c-0.114,0.219 -0.263,0.398 -0.445,0.539c-0.183,0.142 -0.392,0.246 -0.627,0.314c-0.236,0.068 -0.473,0.102 -0.71,0.102c-0.18,0 -0.362,-0.018 -0.543,-0.054c-0.182,-0.038 -0.355,-0.093 -0.519,-0.166c-0.163,-0.074 -0.317,-0.167 -0.459,-0.28c-0.141,-0.114 -0.265,-0.244 -0.372,-0.391l0.525,-0.39c0.131,0.214 0.314,0.394 0.549,0.538c0.234,0.145 0.511,0.217 0.828,0.217c0.153,0 0.308,-0.024 0.468,-0.072c0.157,-0.048 0.3,-0.122 0.427,-0.221c0.128,-0.099 0.233,-0.22 0.315,-0.364c0.082,-0.146 0.123,-0.314 0.123,-0.506c0,-0.21 -0.041,-0.384 -0.123,-0.523c-0.082,-0.137 -0.19,-0.254 -0.326,-0.348c-0.137,-0.094 -0.293,-0.17 -0.468,-0.233c-0.176,-0.063 -0.36,-0.125 -0.551,-0.187c-0.198,-0.062 -0.395,-0.134 -0.587,-0.213c-0.192,-0.08 -0.364,-0.183 -0.517,-0.31c-0.155,-0.127 -0.277,-0.284 -0.37,-0.471c-0.095,-0.187 -0.141,-0.416 -0.141,-0.688c0,-0.289 0.058,-0.537 0.175,-0.748c0.115,-0.209 0.267,-0.382 0.455,-0.518c0.185,-0.135 0.392,-0.234 0.619,-0.297c0.226,-0.061 0.45,-0.093 0.671,-0.093c0.407,0 0.755,0.072 1.045,0.216c0.288,0.144 0.506,0.316 0.654,0.514l-0.485,0.391Z" style="fill:#fff;fill-rule:nonzero;"></path><path d="M133.72,51.346l3.219,0l0,0.543l-3.83,0l0,-6.013l3.729,0l0,0.545l-3.118,0l0,2.064l2.914,0l0,0.543l-2.914,0l0,2.318Z" style="fill:#fff;fill-rule:nonzero;"></path><path d="M139.343,48.551l1.062,0c0.492,0 0.871,-0.088 1.137,-0.267c0.267,-0.178 0.4,-0.445 0.4,-0.803c0,-0.197 -0.037,-0.364 -0.111,-0.5c-0.073,-0.137 -0.175,-0.247 -0.305,-0.332c-0.131,-0.084 -0.29,-0.147 -0.476,-0.186c-0.187,-0.04 -0.394,-0.06 -0.62,-0.06l-1.087,0l0,2.148Zm0,3.338l-0.612,0l0,-6.012l1.768,0c0.294,0 0.566,0.028 0.819,0.085c0.251,0.056 0.47,0.149 0.654,0.276c0.184,0.127 0.326,0.292 0.428,0.496c0.102,0.205 0.153,0.454 0.153,0.747c0,0.221 -0.04,0.422 -0.119,0.604c-0.079,0.181 -0.187,0.338 -0.322,0.472c-0.135,0.132 -0.298,0.239 -0.484,0.318c-0.188,0.079 -0.392,0.13 -0.611,0.153l1.758,2.861l-0.749,0l-1.664,-2.81l-1.019,0l0,2.81Z" style="fill:#fff;fill-rule:nonzero;"></path><path d="M146.154,51.1l0.018,0l1.953,-5.224l0.654,0l-2.301,6.013l-0.647,0l-2.292,-6.013l0.662,0l1.953,5.224Z" style="fill:#fff;fill-rule:nonzero;"></path><rect x="150.197" y="45.877" width="0.612" height="6.013" style="fill:#fff;"></rect><path d="M158.062,50.913c-0.102,0.153 -0.224,0.297 -0.37,0.434c-0.144,0.135 -0.311,0.255 -0.501,0.36c-0.19,0.102 -0.399,0.185 -0.629,0.246c-0.229,0.059 -0.479,0.089 -0.752,0.089c-0.453,0 -0.871,-0.079 -1.256,-0.238c-0.385,-0.158 -0.716,-0.377 -0.994,-0.658c-0.278,-0.28 -0.493,-0.612 -0.65,-0.997c-0.154,-0.386 -0.233,-0.807 -0.233,-1.266c0,-0.458 0.079,-0.881 0.238,-1.265c0.159,-0.384 0.378,-0.719 0.658,-0.999c0.281,-0.279 0.611,-0.499 0.994,-0.658c0.382,-0.158 0.796,-0.238 1.243,-0.238c0.222,0 0.439,0.024 0.65,0.069c0.213,0.047 0.412,0.111 0.6,0.195c0.187,0.083 0.357,0.183 0.509,0.3c0.153,0.117 0.28,0.249 0.382,0.396l-0.509,0.374c-0.063,-0.096 -0.146,-0.192 -0.251,-0.288c-0.105,-0.096 -0.227,-0.183 -0.369,-0.255c-0.142,-0.073 -0.295,-0.134 -0.463,-0.179c-0.168,-0.045 -0.347,-0.067 -0.539,-0.067c-0.391,0 -0.741,0.07 -1.05,0.211c-0.308,0.14 -0.57,0.332 -0.784,0.571c-0.217,0.241 -0.381,0.518 -0.494,0.835c-0.112,0.315 -0.169,0.648 -0.169,0.998c0,0.35 0.057,0.682 0.174,0.999c0.116,0.316 0.281,0.595 0.497,0.834c0.215,0.24 0.477,0.43 0.784,0.571c0.309,0.141 0.657,0.212 1.042,0.212c0.344,0 0.673,-0.071 0.985,-0.212c0.311,-0.142 0.572,-0.368 0.781,-0.679l0.476,0.305Z" style="fill:#fff;fill-rule:nonzero;"></path><path d="M160.321,51.346l3.218,0l0,0.543l-3.829,0l0,-6.013l3.728,0l0,0.545l-3.117,0l0,2.064l2.914,0l0,0.543l-2.914,0l0,2.318Z" style="fill:#fff;fill-rule:nonzero;"></path><path d="M168.245,46.845c-0.13,-0.182 -0.297,-0.327 -0.501,-0.437c-0.205,-0.111 -0.45,-0.167 -0.739,-0.167c-0.147,0 -0.297,0.024 -0.45,0.069c-0.153,0.044 -0.292,0.114 -0.416,0.208c-0.124,0.094 -0.226,0.211 -0.301,0.352c-0.078,0.142 -0.116,0.309 -0.116,0.501c0,0.193 0.037,0.352 0.11,0.476c0.074,0.124 0.172,0.23 0.292,0.319c0.122,0.087 0.261,0.16 0.416,0.216c0.156,0.057 0.317,0.114 0.487,0.17c0.209,0.069 0.419,0.142 0.631,0.221c0.212,0.08 0.402,0.182 0.571,0.31c0.17,0.127 0.309,0.289 0.415,0.484c0.107,0.195 0.162,0.443 0.162,0.743c0,0.3 -0.058,0.559 -0.172,0.777c-0.114,0.219 -0.264,0.398 -0.446,0.539c-0.183,0.142 -0.392,0.246 -0.627,0.314c-0.235,0.068 -0.472,0.102 -0.709,0.102c-0.18,0 -0.362,-0.018 -0.543,-0.054c-0.183,-0.038 -0.355,-0.093 -0.519,-0.166c-0.164,-0.074 -0.317,-0.167 -0.459,-0.28c-0.141,-0.114 -0.266,-0.244 -0.373,-0.391l0.526,-0.39c0.131,0.214 0.314,0.394 0.548,0.538c0.235,0.145 0.511,0.217 0.829,0.217c0.153,0 0.308,-0.024 0.467,-0.072c0.157,-0.048 0.301,-0.122 0.428,-0.221c0.127,-0.099 0.233,-0.22 0.315,-0.364c0.082,-0.146 0.123,-0.314 0.123,-0.506c0,-0.21 -0.041,-0.384 -0.123,-0.523c-0.082,-0.137 -0.191,-0.254 -0.327,-0.348c-0.136,-0.094 -0.292,-0.17 -0.467,-0.233c-0.176,-0.063 -0.36,-0.125 -0.553,-0.187c-0.198,-0.062 -0.393,-0.134 -0.585,-0.213c-0.193,-0.08 -0.365,-0.183 -0.519,-0.31c-0.153,-0.127 -0.275,-0.284 -0.369,-0.471c-0.094,-0.187 -0.14,-0.416 -0.14,-0.688c0,-0.289 0.058,-0.537 0.174,-0.748c0.116,-0.209 0.268,-0.382 0.454,-0.518c0.187,-0.135 0.394,-0.234 0.621,-0.297c0.225,-0.061 0.45,-0.093 0.67,-0.093c0.407,0 0.756,0.072 1.046,0.216c0.288,0.144 0.505,0.316 0.653,0.514l-0.484,0.391Z" style="fill:#fff;fill-rule:nonzero;"></path><rect x="0.377" y="40.277" width="170.238" height="0.207" style="fill:#fff;"></rect></svg> 